<svg width="20" height="20" viewBox="0 0 20 20" fill="none" xmlns="http://www.w3.org/2000/svg">
<path d="M10.9497 5.41898H3.01672V9.44132H10.9497V5.41898Z" fill="#111111"/>
<path d="M6.42458 4.24581V0.279327H0V4.30167H6.41899C6.41341 4.30167 6.42458 4.26257 6.42458 4.24581Z" fill="#111111"/>
<path d="M6.42458 10.6089C6.42458 10.5922 6.41899 10.5587 6.41899 10.5587H0V14.581H6.42458V10.6089Z" fill="#111111"/>
<path d="M15.4748 14.581V10.6089C15.4804 10.5922 15.486 10.5754 15.4971 10.5587H7.53064C7.53623 10.5754 7.54181 10.5922 7.54181 10.6089V14.581H15.4748Z" fill="#111111"/>
<path d="M15.4748 4.24581V0.279327H7.54181V4.24581C7.54181 4.26257 7.53623 4.28491 7.53064 4.30167H15.4971C15.486 4.28491 15.4748 4.26815 15.4748 4.24581Z" fill="#111111"/>
<path d="M1.89944 5.41898H0V9.44132H1.89944V5.41898Z" fill="#111111"/>
<path d="M20 5.41898H12.067V9.44132H20V5.41898Z" fill="#111111"/>
<path d="M16.5922 10.6089V14.581H20V10.5587H16.6089C16.6033 10.5754 16.5977 10.5922 16.5922 10.6089Z" fill="#111111"/>
<path d="M1.89944 15.6983H0V19.7207H1.89944V15.6983Z" fill="#111111"/>
<path d="M16.5922 0.279327V4.24581C16.5977 4.26257 16.6033 4.28491 16.6089 4.30167H20V0.279327H16.5922Z" fill="#111111"/>
<path d="M10.9497 15.6983H3.01672V19.7207H10.9497V15.6983Z" fill="#111111"/>
<path d="M20 15.6983H12.067V19.7207H20V15.6983Z" fill="#111111"/>
</svg>
