<svg width="36" height="36" viewBox="0 0 36 36" fill="none" xmlns="http://www.w3.org/2000/svg">
<path d="M34.9453 25.9453H33.6797V23.625C33.6797 23.0425 33.2075 22.5703 32.625 22.5703C32.0425 22.5703 31.5703 23.0425 31.5703 23.625V25.9453H30.1641V36H34.9453C35.5278 36 36 35.5278 36 34.9453V27C36 26.4175 35.5278 25.9453 34.9453 25.9453Z" fill="#111111"/>
<path d="M5.83594 25.9453H4.42969V23.625C4.42969 23.0425 3.95747 22.5703 3.375 22.5703C2.79253 22.5703 2.32031 23.0425 2.32031 23.625V25.9453H1.05469C0.472219 25.9453 0 26.4175 0 27V34.9453C0 35.5278 0.472219 36 1.05469 36H5.83594V25.9453Z" fill="#111111"/>
<path d="M7.94531 36H13.0078V30.375C13.0078 29.7925 13.48 29.3203 14.0625 29.3203H21.9375C22.52 29.3203 22.9922 29.7925 22.9922 30.375V36H28.0547C28.0547 34.2565 28.0547 2.66435 28.0547 1.05469C28.0547 0.472219 27.5825 0 27 0H9C8.41753 0 7.94531 0.472219 7.94531 1.05469V36ZM15.1875 24.6797H14.0625C13.48 24.6797 13.0078 24.2075 13.0078 23.625C13.0078 23.0425 13.48 22.5703 14.0625 22.5703H15.1875C15.77 22.5703 16.2422 23.0425 16.2422 23.625C16.2422 24.2075 15.77 24.6797 15.1875 24.6797ZM15.1875 20.1797H14.0625C13.48 20.1797 13.0078 19.7075 13.0078 19.125C13.0078 18.5425 13.48 18.0703 14.0625 18.0703H15.1875C15.77 18.0703 16.2422 18.5425 16.2422 19.125C16.2422 19.7075 15.77 20.1797 15.1875 20.1797ZM15.1875 15.6797H14.0625C13.48 15.6797 13.0078 15.2075 13.0078 14.625C13.0078 14.0425 13.48 13.5703 14.0625 13.5703H15.1875C15.77 13.5703 16.2422 14.0425 16.2422 14.625C16.2422 15.2075 15.77 15.6797 15.1875 15.6797ZM15.1875 11.1797H14.0625C13.48 11.1797 13.0078 10.7075 13.0078 10.125C13.0078 9.54253 13.48 9.07031 14.0625 9.07031H15.1875C15.77 9.07031 16.2422 9.54253 16.2422 10.125C16.2422 10.7075 15.77 11.1797 15.1875 11.1797ZM21.9375 24.6797H20.8125C20.23 24.6797 19.7578 24.2075 19.7578 23.625C19.7578 23.0425 20.23 22.5703 20.8125 22.5703H21.9375C22.52 22.5703 22.9922 23.0425 22.9922 23.625C22.9922 24.2075 22.52 24.6797 21.9375 24.6797ZM21.9375 20.1797H20.8125C20.23 20.1797 19.7578 19.7075 19.7578 19.125C19.7578 18.5425 20.23 18.0703 20.8125 18.0703H21.9375C22.52 18.0703 22.9922 18.5425 22.9922 19.125C22.9922 19.7075 22.52 20.1797 21.9375 20.1797ZM21.9375 15.6797H20.8125C20.23 15.6797 19.7578 15.2075 19.7578 14.625C19.7578 14.0425 20.23 13.5703 20.8125 13.5703H21.9375C22.52 13.5703 22.9922 14.0425 22.9922 14.625C22.9922 15.2075 22.52 15.6797 21.9375 15.6797ZM21.9375 11.1797H20.8125C20.23 11.1797 19.7578 10.7075 19.7578 10.125C19.7578 9.54253 20.23 9.07031 20.8125 9.07031H21.9375C22.52 9.07031 22.9922 9.54253 22.9922 10.125C22.9922 10.7075 22.52 11.1797 21.9375 11.1797ZM13.5 4.57031H22.5C23.0825 4.57031 23.5547 5.04253 23.5547 5.625C23.5547 6.20747 23.0825 6.67969 22.5 6.67969H13.5C12.9175 6.67969 12.4453 6.20747 12.4453 5.625C12.4453 5.04253 12.9175 4.57031 13.5 4.57031Z" fill="#111111"/>
<path d="M15.1172 36H20.8828V31.4297H15.1172V36Z" fill="#111111"/>
</svg>
