<svg width="16" height="16" viewBox="0 0 16 16" fill="none" xmlns="http://www.w3.org/2000/svg">
<path d="M1.66666 7.33333V5.33332C1.85066 5.33332 2 5.18397 2 4.99997C2 4.81597 1.85066 4.66663 1.66666 4.66663C0.747344 4.66663 0 5.41463 0 6.33332V6.99998C0 7.55133 0.448656 7.99998 1 7.99998H1.66666C1.85066 7.99998 2 7.85064 2 7.66664C2 7.48264 1.85066 7.33333 1.66666 7.33333Z" fill="#111111"/>
<path d="M14.3333 4.66663C14.1493 4.66663 14 4.81597 14 4.99997C14 5.18397 14.1493 5.33332 14.3333 5.33332V7.33333C14.1493 7.33333 14 7.48267 14 7.66667C14 7.85067 14.1493 7.99998 14.3333 7.99998H15C15.5513 7.99998 16 7.55133 16 6.99998V6.33332C16 5.41463 15.2527 4.66663 14.3333 4.66663Z" fill="#111111"/>
<path d="M5.66666 14C5.48266 14 5.33331 14.1493 5.33331 14.3333H3.33331C3.33331 14.1493 3.18397 14 2.99997 14C2.81597 14 2.66663 14.1493 2.66663 14.3333V15C2.66663 15.5513 3.11528 16 3.66663 16H5C5.55134 16 6 15.5513 6 15V14.3333C6 14.1493 5.85066 14 5.66666 14Z" fill="#111111"/>
<path d="M13 14C12.816 14 12.6667 14.1493 12.6667 14.3333H10.6667C10.6667 14.1493 10.5173 14 10.3333 14C10.1493 14 10 14.1493 10 14.3333V15C10 15.5513 10.4487 16 11 16H12.3333C12.8847 16 13.3333 15.5513 13.3333 15V14.3333C13.3333 14.1493 13.184 14 13 14Z" fill="#111111"/>
<path d="M13 0H3.00003C2.08069 0 1.33337 0.748 1.33337 1.66666V13C1.33337 13.9187 2.08072 14.6667 3.00003 14.6667H13C13.9194 14.6667 14.6667 13.9187 14.6667 13V1.66666C14.6667 0.748 13.9194 0 13 0ZM4.33337 1.33334H11.6667C12.2181 1.33334 12.6667 1.782 12.6667 2.33334C12.6667 2.88469 12.2181 3.33334 11.6667 3.33334H4.33337C3.78203 3.33334 3.33337 2.88469 3.33337 2.33334C3.33337 1.782 3.78203 1.33334 4.33337 1.33334ZM4.33337 12.6667C3.78203 12.6667 3.33337 12.218 3.33337 11.6667C3.33337 11.1153 3.78203 10.6667 4.33337 10.6667C4.88472 10.6667 5.33337 11.1153 5.33337 11.6667C5.33337 12.218 4.88469 12.6667 4.33337 12.6667ZM11.6667 12.6667C11.1153 12.6667 10.6667 12.218 10.6667 11.6667C10.6667 11.1153 11.1153 10.6667 11.6667 10.6667C12.218 10.6667 12.6667 11.1153 12.6667 11.6667C12.6667 12.218 12.218 12.6667 11.6667 12.6667ZM13.3334 8.33334C13.3334 8.88469 12.8847 9.33334 12.3334 9.33334H3.66669C3.11534 9.33334 2.66669 8.88469 2.66669 8.33334V5C2.66669 4.44866 3.11534 4 3.66669 4H12.3333C12.8847 4 13.3333 4.44866 13.3333 5V8.33334H13.3334Z" fill="#111111"/>
</svg>
