<svg width="36" height="36" viewBox="0 0 36 36" fill="none" xmlns="http://www.w3.org/2000/svg">
<path d="M13.1161 19.8611C13.1161 19.4101 12.7503 19.0447 12.299 19.0447H9.44754C8.99672 19.0447 8.63086 19.4101 8.63086 19.8611V22.7121C8.63086 23.1637 8.99672 23.5292 9.44754 23.5292H12.299C12.7503 23.5292 13.1161 23.1637 13.1161 22.7121V19.8611Z" fill="#111111"/>
<path d="M20.2426 19.8611C20.2426 19.4101 19.8768 19.0447 19.4263 19.0447H16.5745C16.1237 19.0447 15.7578 19.4101 15.7578 19.8611V22.7121C15.7578 23.1637 16.1237 23.5292 16.5745 23.5292H19.4263C19.8768 23.5292 20.2426 23.1637 20.2426 22.7121V19.8611Z" fill="#111111"/>
<path d="M27.3686 19.8611C27.3686 19.4101 27.0027 19.0447 26.5519 19.0447H23.7004C23.2491 19.0447 22.8833 19.4101 22.8833 19.8611V22.7121C22.8833 23.1637 23.2491 23.5292 23.7004 23.5292H26.5519C27.0027 23.5292 27.3686 23.1637 27.3686 22.7121V19.8611Z" fill="#111111"/>
<path d="M13.1161 26.9879C13.1161 26.5362 12.7503 26.1711 12.299 26.1711H9.44754C8.99672 26.1711 8.63086 26.5362 8.63086 26.9879V29.8385C8.63086 30.2897 8.99672 30.6551 9.44754 30.6551H12.299C12.7503 30.6551 13.1161 30.2896 13.1161 29.8385V26.9879Z" fill="#111111"/>
<path d="M20.2426 26.9879C20.2426 26.5362 19.8768 26.1711 19.4263 26.1711H16.5745C16.1237 26.1711 15.7578 26.5362 15.7578 26.9879V29.8385C15.7578 30.2897 16.1237 30.6551 16.5745 30.6551H19.4263C19.8768 30.6551 20.2426 30.2896 20.2426 29.8385V26.9879Z" fill="#111111"/>
<path d="M27.3686 26.9879C27.3686 26.5362 27.0027 26.1711 26.5522 26.1711H23.7004C23.2491 26.1711 22.8833 26.5362 22.8833 26.9879V29.8385C22.8833 30.2897 23.2491 30.6551 23.7004 30.6551H26.5522C27.0027 30.6551 27.3686 30.2896 27.3686 29.8385V26.9879Z" fill="#111111"/>
<path d="M32.4675 4.00849V8.36328C32.4675 10.3316 30.8707 11.9178 28.9027 11.9178H26.6539C24.6858 11.9178 23.0678 10.3316 23.0678 8.36328V3.99286H12.9319V8.36328C12.9319 10.3316 11.3141 11.9178 9.3462 11.9178H7.09697C5.12902 11.9178 3.53231 10.3316 3.53231 8.36328V4.00849C1.8123 4.06034 0.398926 5.48359 0.398926 7.23296V32.7541C0.398926 34.5364 1.84349 36.0001 3.62575 36.0001H32.374C34.1536 36.0001 35.6008 34.5333 35.6008 32.7541V7.23296C35.6008 5.48359 34.1875 4.06034 32.4675 4.00849ZM31.423 31.1648C31.423 31.9351 30.7985 32.5599 30.028 32.5599H5.9103C5.13978 32.5599 4.51529 31.9351 4.51529 31.1648V17.9822C4.51529 17.2117 5.13971 16.5869 5.9103 16.5869H30.0279C30.7985 16.5869 31.423 17.2117 31.423 17.9822L31.423 31.1648Z" fill="#111111"/>
<path d="M7.0888 9.58312H9.31317C9.98833 9.58312 10.5358 9.0365 10.5358 8.36135V1.22222C10.5358 0.546985 9.98833 0 9.31317 0H7.0888C6.41356 0 5.86621 0.546985 5.86621 1.22222V8.36135C5.86621 9.0365 6.41356 9.58312 7.0888 9.58312Z" fill="#111111"/>
<path d="M26.6253 9.58312H28.8497C29.5244 9.58312 30.0719 9.0365 30.0719 8.36135V1.22222C30.0719 0.546985 29.5245 0 28.8497 0H26.6253C25.9503 0 25.4028 0.546985 25.4028 1.22222V8.36135C25.4028 9.0365 25.9503 9.58312 26.6253 9.58312Z" fill="#111111"/>
</svg>
