<svg xmlns="http://www.w3.org/2000/svg" viewBox="0 0 16.68 14.03"><defs><style>.cls-1{fill:#111;}</style></defs><title>filter</title><g id="Слой_2" data-name="Слой 2"><g id="Слой_1-2" data-name="Слой 1"><path class="cls-1" d="M5,7.35H3.07L3,7.33l-.08,0H1a1,1,0,0,0,0,2H2V13a1,1,0,1,0,2,0V9.35H5a1,1,0,0,0,0-2Z"/><path class="cls-1" d="M13.66,8a1,1,0,0,0,1-1V1a1,1,0,0,0-2,0V7A1,1,0,0,0,13.66,8Z"/><path class="cls-1" d="M3,6.67a1,1,0,0,0,1-1V1A1,1,0,0,0,2,1V5.67A1,1,0,0,0,3,6.67Z"/><path class="cls-1" d="M8.3,6a1,1,0,0,0-1,1v6a1,1,0,1,0,2,0V7A1,1,0,0,0,8.3,6Z"/><path class="cls-1" d="M11.32,4.35a1,1,0,0,0-1-1h-1V1a1,1,0,1,0-2,0V3.35h-1a1,1,0,1,0,0,2h4A1,1,0,0,0,11.32,4.35Z"/><path class="cls-1" d="M15.68,8.68h-4a1,1,0,0,0,0,2h1V13a1,1,0,0,0,2,0V10.68h1a1,1,0,0,0,0-2Z"/></g></g></svg>