<svg width="20" height="20" viewBox="0 0 20 20" fill="none" xmlns="http://www.w3.org/2000/svg">
<path d="M18.9249 -2.90117e-05H1.09436C0.779678 -0.000623874 0.491369 0.175058 0.347611 0.45484C0.20187 0.73839 0.227449 1.07984 0.41364 1.3388L6.946 10.5411C6.94818 10.5443 6.95056 10.5472 6.95274 10.5504C7.19009 10.8708 7.31858 11.2591 7.31918 11.6578V19.1604C7.31779 19.3825 7.40503 19.596 7.56148 19.7537C7.71813 19.9111 7.93109 19.9999 8.15317 19.9999C8.266 19.9997 8.37783 19.9773 8.48213 19.9339L12.1528 18.5344C12.4816 18.4339 12.6999 18.1236 12.6999 17.75V11.6578C12.7005 11.2591 12.829 10.8708 13.0661 10.5504C13.0683 10.5472 13.0707 10.5443 13.0729 10.5411L19.6054 1.3386C19.7916 1.07984 19.8172 0.738588 19.6715 0.455039C19.5279 0.175058 19.2394 -0.000623874 18.9249 -2.90117e-05Z" fill="#111111"/>
</svg>
