<svg width="20" height="20" viewBox="0 0 20 20" fill="none" xmlns="http://www.w3.org/2000/svg">
<path d="M7.05995 5.90518H5.40283V7.80995H7.05995V5.90518Z" fill="#111111"/>
<path d="M14.5972 5.90518H12.9401V7.80995H14.5972V5.90518Z" fill="#111111"/>
<path d="M7.05995 15.0475H5.40283V16.9523H7.05995V15.0475Z" fill="#111111"/>
<path d="M14.5972 15.0475H12.9401V16.9523H14.5972V15.0475Z" fill="#111111"/>
<path d="M2.87367 0.672139C2.78771 0.527227 2.63276 0.438385 2.4635 0.438385C2.2955 0.438385 2.13971 0.527157 2.05382 0.672139L0.066877 4.02981C0.0225964 4.10293 0 4.18693 0 4.27178V19.0853C0 19.3484 0.213543 19.5617 0.47656 19.5617H4.45051C4.71353 19.5617 4.92623 19.3484 4.92623 19.0853V4.27178C4.92623 4.18693 4.90363 4.10293 4.86026 4.02981L2.87367 0.672139Z" fill="#111111"/>
<path d="M10.4096 0.672163C10.2382 0.382269 9.76163 0.382269 9.59019 0.672163L7.60234 4.02983C7.55897 4.10296 7.53638 4.18696 7.53638 4.2718V19.0854C7.53638 19.3484 7.7495 19.5617 8.01209 19.5617H11.9877C12.2503 19.5617 12.4634 19.3484 12.4634 19.0854V4.2718C12.4634 4.18696 12.4408 4.10296 12.3971 4.02983L10.4096 0.672163Z" fill="#111111"/>
<path d="M19.9332 4.02983L17.9463 0.672163C17.7744 0.382059 17.2974 0.38248 17.1263 0.672163L15.1398 4.02983C15.0964 4.10296 15.0739 4.18696 15.0739 4.2718V19.0854C15.0739 19.3484 15.2866 19.5617 15.5496 19.5617H19.5235C19.7865 19.5617 20.0001 19.3484 20.0001 19.0854V4.2718C20 4.18696 19.9775 4.10296 19.9332 4.02983Z" fill="#111111"/>
</svg>
