<svg width="20" height="20" viewBox="0 0 20 20" fill="none" xmlns="http://www.w3.org/2000/svg">
<path d="M1.07143 0H7.5C8.09169 0 8.57143 0.479736 8.57143 1.07143V7.5C8.57143 8.09169 8.09169 8.57143 7.5 8.57143H1.07143C0.479736 8.57143 0 8.09169 0 7.5V1.07143C0 0.479736 0.479736 0 1.07143 0Z" fill="#111111"/>
<path d="M1.07143 11.4286H7.5C8.09169 11.4286 8.57143 11.9083 8.57143 12.5V18.9286C8.57143 19.5203 8.09169 20 7.5 20H1.07143C0.479736 20 0 19.5203 0 18.9286V12.5C0 11.9083 0.479736 11.4286 1.07143 11.4286Z" fill="#111111"/>
<path d="M12.5 0H18.9286C19.5203 0 20 0.479736 20 1.07143V7.5C20 8.09169 19.5203 8.57143 18.9286 8.57143H12.5C11.9083 8.57143 11.4286 8.09169 11.4286 7.5V1.07143C11.4286 0.479736 11.9083 0 12.5 0Z" fill="#111111"/>
<path d="M12.5 11.4286H18.9286C19.5203 11.4286 20 11.9083 20 12.5V18.9286C20 19.5203 19.5203 20 18.9286 20H12.5C11.9083 20 11.4286 19.5203 11.4286 18.9286V12.5C11.4286 11.9083 11.9083 11.4286 12.5 11.4286Z" fill="#111111"/>
</svg>
