<svg xmlns="http://www.w3.org/2000/svg" viewBox="0 0 20 18"><defs><style>.cls-1{fill:#111;}</style></defs><title>heart</title><g id="Слой_2" data-name="Слой 2"><g id="Слой_1-2" data-name="Слой 1"><path class="cls-1" d="M19.9,4.47a.77.77,0,0,0,0-.15c-.05-.25-.12-.51-.2-.77h0A5.52,5.52,0,0,0,17.87,1,4.82,4.82,0,0,0,15,0c-2.79-.1-4.69,2.19-5,2.57C9.69,2.19,7.79-.1,5,0A4.82,4.82,0,0,0,2.13,1,5.52,5.52,0,0,0,.34,3.55h0c-.08.26-.15.52-.2.77a.77.77,0,0,0,0,.15C-1.14,11.46,10,18,10,18S21.14,11.46,19.9,4.47Z"/></g></g></svg>