<svg xmlns="http://www.w3.org/2000/svg" viewBox="0 0 20 18"><defs><style>.cls-1{fill:#111;}.cls-2{fill:#fff;}</style></defs><title>heart_1</title><g id="Слой_2" data-name="Слой 2"><g id="Слой_1-2" data-name="Слой 1"><path class="cls-1" d="M19.9,4.47a.77.77,0,0,0,0-.15c-.05-.25-.12-.51-.2-.77h0A5.52,5.52,0,0,0,17.87,1,4.82,4.82,0,0,0,15,0c-2.79-.1-4.69,2.19-5,2.57C9.69,2.19,7.79-.1,5,0A4.82,4.82,0,0,0,2.13,1,5.52,5.52,0,0,0,.34,3.55h0c-.08.26-.15.52-.2.77a.77.77,0,0,0,0,.15C-1.14,11.46,10,18,10,18S21.14,11.46,19.9,4.47Z"/><path class="cls-2" d="M19.41,4.48a5.54,5.54,0,0,0-.19-.71h0a5.1,5.1,0,0,0-1.64-2.35A4.46,4.46,0,0,0,15,.5c-2.77-.12-4.7,2.41-5,2.78C9.73,2.91,7.8.38,5,.5a4.46,4.46,0,0,0-2.6.92A5.1,5.1,0,0,0,.79,3.77h0a5.54,5.54,0,0,0-.19.71,7.45,7.45,0,0,0,.94,4.67c1.07,2.16,4,5.36,8.47,8.35,4.46-3,7.4-6.19,8.47-8.35A7.45,7.45,0,0,0,19.41,4.48Z"/></g></g></svg>