<svg width="46" height="46" viewBox="0 0 46 46" fill="none" xmlns="http://www.w3.org/2000/svg">
<circle cx="23" cy="23" r="23" fill="#F03B8C"/>
<path d="M32.4603 21.699C32.4598 21.6986 32.4594 21.6981 32.4589 21.6977L24.3005 13.5396C23.9527 13.1917 23.4904 13 22.9986 13C22.5068 13 22.0445 13.1915 21.6966 13.5394L13.5424 21.6934C13.5397 21.6961 13.5369 21.699 13.5342 21.7018C12.8201 22.42 12.8213 23.5853 13.5377 24.3017C13.865 24.6292 14.2973 24.8188 14.7595 24.8387C14.7782 24.8405 14.7972 24.8414 14.8162 24.8414H15.1414V30.8453C15.1414 32.0334 16.1081 33 17.2964 33H20.4882C20.8117 33 21.0742 32.7377 21.0742 32.4141V27.707C21.0742 27.1649 21.5152 26.7239 22.0573 26.7239H23.9399C24.4821 26.7239 24.9231 27.1649 24.9231 27.707V32.4141C24.9231 32.7377 25.1854 33 25.509 33H28.7008C29.8892 33 30.8558 32.0334 30.8558 30.8453V24.8414H31.1573C31.649 24.8414 32.1113 24.6499 32.4594 24.302C33.1765 23.5844 33.1768 22.4171 32.4603 21.699Z" fill="white"/>
</svg>
