<svg width="20" height="20" viewBox="0 0 20 20" fill="none" xmlns="http://www.w3.org/2000/svg">
<path d="M19.5243 2.60529C19.2604 2.60529 19.0473 2.81862 19.0473 3.08164V6.46381L8.88971 8.3902C8.66578 8.43315 8.5022 8.62957 8.5022 8.85806V10.6489C8.5022 10.9119 8.71525 11.1252 8.97918 11.1252C9.24178 11.1252 9.45483 10.9119 9.45483 10.6489V9.25216L19.6124 7.32571C19.8376 7.28339 20 7.08704 20 6.85785V3.08164C20 2.81862 19.7868 2.60529 19.5243 2.60529Z" fill="#111111"/>
<path d="M17.9545 5.17145V0.990886C17.9545 0.728501 17.7413 0.515167 17.4788 0.515167H0.475649C0.213123 0.515167 0 0.728501 0 0.990886V5.17145C0 5.43383 0.213123 5.64717 0.475649 5.64717H17.4787C17.7413 5.64717 17.9545 5.43383 17.9545 5.17145Z" fill="#111111"/>
<path d="M10.1683 11.9646H7.78723C7.5233 11.9646 7.31018 12.178 7.31018 12.441V19.0091C7.31018 19.2715 7.5233 19.4848 7.78723 19.4848H10.1683C10.4309 19.4848 10.644 19.2715 10.644 19.0091V12.441C10.6441 12.178 10.431 11.9646 10.1683 11.9646Z" fill="#111111"/>
</svg>
