<svg width="20" height="20" viewBox="0 0 20 20" fill="none" xmlns="http://www.w3.org/2000/svg">
<path d="M10 0C8.02219 0 6.08879 0.58649 4.4443 1.6853C2.79981 2.78412 1.51809 4.3459 0.761209 6.17317C0.00433286 8.00043 -0.193701 10.0111 0.192152 11.9509C0.578004 13.8907 1.53041 15.6725 2.92894 17.0711C4.32746 18.4696 6.10929 19.422 8.0491 19.8079C9.98891 20.1937 11.9996 19.9957 13.8268 19.2388C15.6541 18.4819 17.2159 17.2002 18.3147 15.5557C19.4135 13.9112 20 11.9778 20 10C19.997 7.34875 18.9425 4.80694 17.0678 2.93222C15.1931 1.0575 12.6513 0.00297764 10 0V0ZM10 17.9167C8.43424 17.9167 6.90363 17.4524 5.60174 16.5825C4.29985 15.7126 3.28515 14.4762 2.68596 13.0296C2.08676 11.583 1.92999 9.99122 2.23545 8.45553C2.54092 6.91985 3.29491 5.50924 4.40208 4.40207C5.50924 3.29491 6.91986 2.54092 8.45554 2.23545C9.99122 1.92998 11.583 2.08676 13.0296 2.68595C14.4762 3.28515 15.7126 4.29985 16.5825 5.60174C17.4524 6.90363 17.9167 8.43423 17.9167 10C17.9143 12.0989 17.0795 14.1112 15.5953 15.5953C14.1112 17.0795 12.0989 17.9143 10 17.9167Z" fill="#111111"/>
<path d="M11.2501 7.5H9.16675V10H11.2501C11.5816 10 11.8995 9.8683 12.134 9.63388C12.3684 9.39946 12.5001 9.08152 12.5001 8.75C12.5001 8.41848 12.3684 8.10054 12.134 7.86612C11.8995 7.6317 11.5816 7.5 11.2501 7.5Z" fill="#111111"/>
<path d="M9.99996 2.91666C8.59901 2.91666 7.22952 3.33209 6.06467 4.11041C4.89983 4.88874 3.99194 5.99501 3.45582 7.28932C2.9197 8.58363 2.77942 10.0079 3.05273 11.3819C3.32605 12.7559 4.00067 14.018 4.99129 15.0087C5.98191 15.9993 7.24404 16.6739 8.61807 16.9472C9.9921 17.2205 11.4163 17.0803 12.7106 16.5441C14.0049 16.008 15.1112 15.1001 15.8895 13.9353C16.6679 12.7704 17.0833 11.4009 17.0833 9.99999C17.0812 8.12203 16.3342 6.32159 15.0063 4.99366C13.6784 3.66574 11.8779 2.91878 9.99996 2.91666ZM11.25 11.6667H9.16663V15H7.49996V6.66666C7.49996 6.44564 7.58776 6.23368 7.74404 6.0774C7.90032 5.92112 8.11228 5.83332 8.3333 5.83332H11.25C12.0235 5.83332 12.7654 6.14062 13.3124 6.6876C13.8593 7.23458 14.1666 7.97644 14.1666 8.74999C14.1666 9.52354 13.8593 10.2654 13.3124 10.8124C12.7654 11.3594 12.0235 11.6667 11.25 11.6667Z" fill="#111111"/>
</svg>
