<svg width="36" height="36" viewBox="0 0 36 36" fill="none" xmlns="http://www.w3.org/2000/svg">
<path d="M20.3134 13.852L18.0001 9.16455L15.6867 13.852C15.5331 14.1633 15.2361 14.3791 14.8926 14.429L9.71973 15.1806L13.4629 18.8293C13.7114 19.0716 13.8249 19.4207 13.7662 19.7628L12.8826 24.9148L17.5094 22.4824C17.663 22.4016 17.8316 22.3612 18.0002 22.3612C18.1687 22.3612 18.3373 22.4016 18.4909 22.4824L23.1177 24.9148L22.2341 19.7628C22.1755 19.4207 22.2889 19.0716 22.5374 18.8293L26.2806 15.1806L21.1077 14.429C20.7641 14.3791 20.4671 14.1633 20.3134 13.852Z" fill="#111111"/>
<path d="M18 0C8.07476 0 0 8.07476 0 18C0 27.9252 8.07476 36 18 36C27.9252 36 36 27.9252 36 18C36 8.07476 27.9252 0 18 0ZM29.283 15.1995L24.4067 19.9528L25.5578 26.6645C25.6257 27.0602 25.463 27.4601 25.1383 27.6961C24.9545 27.8295 24.7369 27.8975 24.5183 27.8975C24.3503 27.8975 24.1819 27.8575 24.0275 27.7764L18 24.6075L11.9725 27.7763C11.6171 27.9632 11.1866 27.9321 10.8617 27.696C10.537 27.4601 10.3743 27.0602 10.4422 26.6645L11.5933 19.9527L6.71695 15.1995C6.42952 14.9193 6.32602 14.5001 6.45012 14.1183C6.57415 13.7365 6.9042 13.4582 7.30146 13.4005L14.0405 12.4213L17.0542 6.3147C17.2319 5.9547 17.5986 5.72681 18 5.72681C18.4014 5.72681 18.7681 5.95477 18.9458 6.3147L21.9595 12.4213L28.6985 13.4005C29.0958 13.4582 29.4259 13.7365 29.5499 14.1183C29.674 14.5001 29.5706 14.9193 29.283 15.1995Z" fill="#111111"/>
</svg>
