<svg width="20" height="20" viewBox="0 0 20 20" fill="none" xmlns="http://www.w3.org/2000/svg">
<path d="M14.073 3.77906C12.2551 1.60531 10.4606 0.192463 10.3853 0.13348C9.97562 -0.186939 9.37513 0.105864 9.37513 0.625651V3.374C9.37513 4.79317 7.49703 5.29261 6.79318 4.05913C6.57432 3.67657 6.04215 3.63626 5.76665 3.97281C3.87527 6.28101 2.18787 9.19135 2.18787 12.1878C2.18787 16.4954 5.69244 20 10.0001 20C14.3078 20 17.8123 16.4954 17.8123 12.1878C17.8123 9.11381 16.0374 6.12828 14.073 3.77906ZM6.56272 10.0003C6.56272 9.31091 7.12364 8.75038 7.81268 8.75038C8.50172 8.75038 9.06264 9.31091 9.06264 10.0003C9.06264 10.6898 8.50172 11.2503 7.81268 11.2503C7.12364 11.2503 6.56272 10.6898 6.56272 10.0003ZM8.30602 15.3838C8.09525 15.6554 7.70245 15.706 7.4291 15.4935C7.15645 15.2814 7.10763 14.8889 7.31934 14.6166L11.6942 8.99178C11.9063 8.71913 12.2989 8.67031 12.5711 8.88202C12.8438 9.09412 12.8926 9.48669 12.6809 9.75894L8.30602 15.3838ZM12.1875 15.6252C11.4985 15.6252 10.9376 15.0646 10.9376 14.3752C10.9376 13.6858 11.4985 13.1252 12.1875 13.1252C12.8766 13.1252 13.4375 13.6858 13.4375 14.3752C13.4375 15.0646 12.8766 15.6252 12.1875 15.6252Z" fill="#111111"/>
</svg>
