<svg width="20" height="20" viewBox="0 0 20 20" fill="none" xmlns="http://www.w3.org/2000/svg">
<path d="M18.2284 5.92089C18.2284 4.40339 17.0768 3.15524 15.5998 3.00193C15.1853 1.88407 14.1125 1.08576 12.8501 1.08576C12.2975 1.08576 11.7825 1.24134 11.3413 1.5068C10.8396 0.608365 9.88059 0 8.77829 0C7.31688 0 6.10825 1.06956 5.88397 2.4678C5.7647 2.45322 5.64414 2.44316 5.52097 2.44316C3.90009 2.44316 2.58581 3.75713 2.58581 5.37832C2.58581 5.45773 2.59164 5.53552 2.59781 5.61331C1.77588 6.13351 1.22876 7.04814 1.22876 8.09276C1.22876 9.01617 1.65596 9.83875 2.32262 10.3768C2.31971 10.4296 2.31452 10.4821 2.31452 10.5356C2.31452 12.1565 3.62849 13.4708 5.24968 13.4708C5.73552 13.4708 6.19251 13.3509 6.59605 13.1421C7.15514 13.5437 7.95571 14.0461 8.34333 13.9459C8.34333 13.9459 8.48755 16.1797 8.45643 16.7469C8.39712 17.8262 8.07333 19.0277 7.84549 20.0001H11.3744C11.3744 20.0001 10.8542 17.8324 10.8315 17.1087C10.8088 16.3849 11.0578 15.0521 11.0578 15.0521L12.282 13.7859C12.7532 14.108 13.3223 14.2911 13.9362 14.2911C15.4537 14.2911 16.7019 13.1366 16.8552 11.6596C17.973 11.2451 18.7713 10.1694 18.7713 8.90697C18.7713 8.1615 18.4913 7.48345 18.0336 6.96554C18.1574 6.64074 18.2284 6.28943 18.2284 5.92089ZM7.27407 12.6576C7.50936 12.4329 7.70676 12.1704 7.85746 11.879L8.43372 13.0863C8.43342 13.0864 8.12 13.2248 7.27407 12.6576ZM9.42878 13.403C9.13058 13.4571 8.62272 12.5389 8.26229 11.7925C8.66193 11.9963 9.11309 12.1137 9.59276 12.1137C9.71593 12.1137 9.83683 12.1037 9.95611 12.0887C9.86341 12.6861 9.70007 13.3534 9.42878 13.403ZM10.6957 13.9906C10.006 14.1822 10.4189 12.7535 10.6166 11.9264C10.7596 11.8732 10.898 11.8107 11.0296 11.7364C11.109 12.3393 11.3708 12.8831 11.7588 13.3132C11.4227 13.6118 11.0357 13.8963 10.6957 13.9906Z" fill="#111111"/>
</svg>
