<svg width="10" height="17" viewBox="0 0 10 17" fill="none" xmlns="http://www.w3.org/2000/svg">
<path d="M4.64024 3.57246C5.48867 3.57246 6.17647 2.88467 6.17647 2.03623C6.17647 1.18779 5.48867 0.5 4.64024 0.5C3.7918 0.5 3.104 1.18779 3.104 2.03623C3.104 2.88467 3.7918 3.57246 4.64024 3.57246Z" fill="#111111"/>
<path d="M8.8672 7.37373C7.60211 6.64142 6.5641 5.65223 5.69033 4.48854C5.14128 3.71641 3.68967 3.75672 3.09982 4.46425C2.20251 5.33727 1.44116 6.23708 0.83728 7.13739C0.590421 7.50617 0.688564 8.00515 1.0571 8.25201C1.19455 8.34414 1.34952 8.3882 1.5035 8.3882C1.76237 8.3882 2.01674 8.26327 2.17147 8.03194C2.4366 7.63711 2.73729 7.24104 3.07027 6.84671C3.05751 7.68118 3.09932 9.18686 3.12035 9.8636C3.12736 10.0889 3.07603 10.3092 2.97138 10.5093C2.14318 12.0908 1.61341 13.5873 1.07563 15.4179C0.943934 15.8648 1.20006 16.3338 1.64671 16.4652C1.74785 16.495 1.85 16.505 1.94864 16.4975C2.28864 16.4714 2.59258 16.2399 2.69423 15.8939C3.19045 14.2059 3.6699 12.8392 4.41773 11.3921C4.45579 11.3936 4.49384 11.3936 4.5324 11.3918C5.00984 12.8164 5.48754 14.2417 5.96573 15.6663C6.31299 16.7045 7.92408 16.1653 7.57582 15.1267C7.05331 13.5692 6.53155 12.0125 6.0108 10.4552C5.9805 10.3658 5.90715 10.0158 5.89688 9.90165C5.81076 8.94226 5.77946 7.98587 5.78872 7.02823C6.52179 7.7305 7.33472 8.33963 8.23778 8.86289C9.13834 9.38565 9.75574 7.88873 8.8672 7.37373Z" fill="#111111"/>
</svg>
