<svg width="20" height="20" viewBox="0 0 20 20" fill="none" xmlns="http://www.w3.org/2000/svg">
<path d="M19.7745 16.046C19.4657 15.8314 19.194 15.5679 18.9699 15.2659C18.4336 14.6564 17.751 13.9007 16.4833 13.9007C15.2156 13.9007 14.5574 14.632 13.9966 15.2903C13.4359 15.9485 13.0702 16.3386 12.2414 16.3386C11.4125 16.3386 10.998 15.8753 10.4861 15.2903C9.97415 14.7052 9.29152 13.9007 7.99942 13.9007C6.70733 13.9007 6.07351 14.632 5.51276 15.2903C4.95206 15.9485 4.58637 16.3386 3.75749 16.3386C2.92862 16.3386 2.51416 15.8753 2.00223 15.2903C1.65422 14.8307 1.21414 14.4487 0.710134 14.1688C0.467767 14.0477 0.173092 14.1459 0.0519086 14.3882C-0.0692746 14.6306 0.0289506 14.9253 0.271317 15.0465C0.654092 15.2772 0.992584 15.5744 1.27083 15.9241C1.83153 16.5823 2.48976 17.3137 3.75749 17.3137C5.02523 17.3137 5.68341 16.5824 6.24415 15.9241C6.80486 15.2659 7.17055 14.8758 7.99942 14.8758C8.82829 14.8758 9.24275 15.339 9.75469 15.9241C10.2666 16.5092 10.9493 17.3137 12.2414 17.3137C13.5334 17.3137 14.1673 16.5824 14.728 15.9241C15.2887 15.2659 15.6544 14.8758 16.4833 14.8758C17.3122 14.8758 17.7266 15.339 18.2385 15.9241C18.5227 16.2889 18.8595 16.6093 19.2381 16.8749C19.4669 17.023 19.7726 16.9575 19.9207 16.7286C20.0688 16.4997 20.0034 16.1941 19.7745 16.046Z" fill="#111111"/>
<path d="M19.7745 12.3891C19.4657 12.1745 19.194 11.911 18.9699 11.609C18.4336 10.9996 17.751 10.2438 16.4833 10.2438C15.2156 10.2438 14.5574 10.9752 13.9966 11.6334C13.4359 12.2916 13.0702 12.6817 12.2414 12.6817C11.4125 12.6817 10.998 12.2185 10.4861 11.6334C9.97415 11.0483 9.29152 10.2438 7.99942 10.2438C6.70733 10.2438 6.07351 10.9752 5.51276 11.6334C4.95206 12.2916 4.58637 12.6817 3.75749 12.6817C2.92862 12.6817 2.51416 12.2185 2.00223 11.6334C1.65422 11.1738 1.21414 10.7919 0.710134 10.512C0.467767 10.3908 0.173092 10.489 0.0519086 10.7314C-0.0692746 10.9738 0.0289506 11.2684 0.271317 11.3896C0.654092 11.6203 0.992584 11.9176 1.27083 12.2672C1.83153 12.9255 2.48976 13.6569 3.75749 13.6569C5.02523 13.6569 5.68341 12.9255 6.24415 12.2672C6.80486 11.609 7.17055 11.219 7.99942 11.219C8.82829 11.219 9.24275 11.6822 9.75469 12.2672C10.2666 12.8523 10.9493 13.6569 12.2414 13.6569C13.5334 13.6569 14.1673 12.9255 14.728 12.2672C15.2887 11.609 15.6544 11.219 16.4833 11.219C17.3122 11.219 17.7266 11.6822 18.2385 12.2672C18.5227 12.6321 18.8595 12.9525 19.2381 13.218C19.4669 13.3661 19.7726 13.3006 19.9207 13.0717C20.0688 12.8429 20.0034 12.5372 19.7745 12.3891Z" fill="#111111"/>
<path d="M19.7745 8.48849C19.4657 8.27389 19.194 8.01038 18.9699 7.70838C18.4336 7.09892 17.751 6.34317 16.4833 6.34317C15.2156 6.34317 14.5574 7.07452 13.9966 7.73279C13.4359 8.39106 13.0702 8.78107 12.2414 8.78107C11.4125 8.78107 10.998 8.31785 10.4861 7.73279C9.97415 7.14773 9.29152 6.34317 7.99942 6.34317C6.70733 6.34317 6.07351 7.07452 5.51276 7.73279C4.95206 8.39101 4.58637 8.78107 3.75749 8.78107C2.92862 8.78107 2.51416 8.31785 2.00223 7.73279C1.65422 7.27316 1.21414 6.89122 0.710134 6.61134C0.467767 6.49016 0.173092 6.58838 0.0519086 6.83075C-0.0692746 7.07312 0.0289506 7.36779 0.271317 7.48897C0.654092 7.71968 0.992584 8.01692 1.27083 8.36661C1.83153 9.02483 2.48976 9.75623 3.75749 9.75623C5.02523 9.75623 5.68341 9.02488 6.24415 8.36661C6.80486 7.70838 7.17055 7.31833 7.99942 7.31833C8.82829 7.31833 9.24275 7.78155 9.75469 8.36661C10.2666 8.95167 10.9493 9.75623 12.2414 9.75623C13.5334 9.75623 14.1673 9.02488 14.728 8.36661C15.2888 7.70834 15.6544 7.31833 16.4833 7.31833C17.3122 7.31833 17.7266 7.78155 18.2385 8.36661C18.5227 8.73142 18.8595 9.05185 19.2381 9.31736C19.4669 9.46547 19.7726 9.4 19.9207 9.17108C20.0688 8.94224 20.0034 8.6366 19.7745 8.48849Z" fill="#111111"/>
<path d="M0.271431 3.83215C0.654206 4.06285 0.992698 4.36009 1.27095 4.70978C1.83165 5.368 2.48987 6.0994 3.75761 6.0994C5.02534 6.0994 5.68352 5.36805 6.24427 4.70978C6.80497 4.05155 7.17066 3.6615 7.99954 3.6615C8.82841 3.6615 9.24287 4.12472 9.7548 4.70978C10.2667 5.29488 10.9494 6.0994 12.2415 6.0994C13.5336 6.0994 14.1674 5.36805 14.7281 4.70978C15.2888 4.05155 15.6545 3.6615 16.4834 3.6615C17.3123 3.6615 17.7267 4.12472 18.2387 4.70978C18.5228 5.07459 18.8596 5.39502 19.2382 5.66058C19.4671 5.80869 19.7727 5.74317 19.9208 5.51429C20.0689 5.28541 20.0034 4.97977 19.7745 4.83166C19.4658 4.61706 19.194 4.35356 18.97 4.05155C18.4337 3.44209 17.7511 2.68634 16.4833 2.68634C15.2157 2.68634 14.5574 3.41769 13.9967 4.07596C13.436 4.73418 13.0703 5.12424 12.2414 5.12424C11.4125 5.12424 10.9981 4.66102 10.4861 4.07596C9.97421 3.49085 9.29158 2.68634 7.99949 2.68634C6.7074 2.68634 6.07358 3.41769 5.51283 4.07596C4.95213 4.73418 4.58643 5.12424 3.75756 5.12424C2.92869 5.12424 2.51432 4.66102 2.00234 4.07591C1.65433 3.61628 1.21425 3.23435 0.710248 2.95446C0.467881 2.83328 0.173206 2.93151 0.0520223 3.17387C-0.069161 3.41624 0.0291109 3.71096 0.271431 3.83215Z" fill="#111111"/>
</svg>
